<?xml version="1.0"?><svg width="600" height="600" xmlns="http://www.w3.org/2000/svg">
 <title>lt pink pi</title>
 <metadata id="metadata4915">image/svg+xml</metadata>
 <g>
  <title>Layer 1</title>
  <g id="layer1">
   <path d="m579.093018,30.613001c-124.670013,0.734999 -249.346008,-0.138 -374.017029,0.330999c-33.876007,0.271999 -40.957001,1.215 -46.264008,2.075001c-32.003998,5.183998 -45.229988,11.379997 -65.094093,30.593998c-22.936005,22.186005 -38.609009,46.048004 -52.500008,79.875008c-4.477001,10.903 -12.027,32.810989 -15.5,44.936996l-1.5,5.25l17.375,-0.031006l6.344009,-10.280991c15.053989,-24.471008 33.056992,-45.134003 47.468994,-54.5c17.983093,-11.687004 41.997101,-17.16201 75.562103,-17.187004l11.343994,0c-2.598999,29.803993 -4.591995,59.661003 -6.75,89.499992c-6.703003,93.242004 -6.802994,94.425018 -10.561996,118.5c-10.955002,70.14801 -20.595993,96.734009 -49.813004,137.375c-26.329094,36.623016 -30.848099,45.18399 -33.031097,62.592987c-3.03199,24.179993 9.682999,44.376038 33.031097,52.5c10.888,3.580017 23.552002,3.650024 34.031006,-1.217957l0,0.030945c12.054993,-5.934998 24.858994,-14.146973 45.843994,-46.687988c20.985001,-32.540985 55.796997,-122.339996 62.000031,-235.593994c6.203003,-113.253983 18.030945,-167.35498 11.030945,-171.792984l70.25,-0.207001c-3.208954,63.188004 -0.801971,125.899994 -4.311981,190.499985c-3.51001,64.600006 -0.343018,112.725006 1,133.157013c3.751984,57.075012 33.225983,90.58902 49.906036,105.999969c16.679993,15.411011 39.213989,22.323059 59.812958,26.906006c9.239044,2.055054 28.463043,1.522034 37.842987,-1.062988c15.806,-4.356018 32.792053,-14.856995 47.063049,-29.093018c18.536011,-18.491943 30.484985,-41.755981 39.468994,-76.906982c3.463989,-13.552979 8.968018,-42.819 8.968018,-47.592987l-17.406006,0.342987c-2.984009,14.494019 -4.156982,19.008026 -6.468994,24.688019c-6.604004,16.227997 -19.403015,28.299988 -36.125,34.156006c-20.731049,6.190002 -42.772003,3.060974 -61.187042,-7.812012c-17.89801,-11.691986 -28.85498,-31.322998 -33.406006,-59.875c-4.769012,-99.638 1.769043,-190.585007 15.592987,-289.157013l139.000061,6.75l1,-97.062017l0,0l0,0.000031z" id="rect4886" fill="#9900ff"/>
  </g>
 </g>
</svg>